<?xml version="1.0" encoding="UTF-8" standalone="no"?>
<!-- Created with Inkscape (http://www.inkscape.org/) -->

<svg
   xmlns:dc="http://purl.org/dc/elements/1.1/"
   xmlns:cc="http://creativecommons.org/ns#"
   xmlns:rdf="http://www.w3.org/1999/02/22-rdf-syntax-ns#"
   xmlns:svg="http://www.w3.org/2000/svg"
   xmlns="http://www.w3.org/2000/svg"
   xmlns:sodipodi="http://sodipodi.sourceforge.net/DTD/sodipodi-0.dtd"
   xmlns:inkscape="http://www.inkscape.org/namespaces/inkscape"
   width="132.50333mm"
   height="132.50359mm"
   viewBox="0 0 132.50333 132.50359"
   version="1.1"
   id="svg3277"
   inkscape:version="0.92.4 (5da689c313, 2019-01-14)"
   sodipodi:docname="minimal.svg">
  <defs
     id="defs3271" />
  <sodipodi:namedview
     id="base"
     pagecolor="#ffffff"
     bordercolor="#666666"
     borderopacity="1.0"
     inkscape:pageopacity="0.0"
     inkscape:pageshadow="2"
     inkscape:zoom="0.7"
     inkscape:cx="-160.08859"
     inkscape:cy="237.09851"
     inkscape:document-units="mm"
     inkscape:current-layer="layer1"
     showgrid="false"
     inkscape:window-width="1920"
     inkscape:window-height="1000"
     inkscape:window-x="-11"
     inkscape:window-y="-11"
     inkscape:window-maximized="1" />
  <metadata
     id="metadata3274">
    <rdf:RDF>
      <cc:Work
         rdf:about="">
        <dc:format>image/svg+xml</dc:format>
        <dc:type
           rdf:resource="http://purl.org/dc/dcmitype/StillImage" />
        <dc:title></dc:title>
      </cc:Work>
    </rdf:RDF>
  </metadata>
  <g
     inkscape:label="Layer 1"
     inkscape:groupmode="layer"
     id="layer1"
     transform="translate(-21.438812,-11.522015)">
    <rect
       style="display:inline;opacity:1;fill:#730000;fill-opacity:1;stroke:none;stroke-width:0;stroke-miterlimit:4;stroke-dasharray:none;stroke-opacity:1"
       id="rect4553"
       width="132.50333"
       height="132.50333"
       x="21.438812"
       y="11.522015" />
    <path
       style="display:inline;opacity:0.95;fill:#d80000;fill-opacity:1;stroke:none;stroke-width:0.1;stroke-linecap:butt;stroke-linejoin:miter;stroke-miterlimit:4;stroke-dasharray:none;stroke-opacity:1"
       d="m 85.799447,40.930241 c -0.0386,-7.94e-4 -0.0837,0.0021 -0.136943,0.0083 -0.425963,0.05011 -1.973868,0.08268 -2.416532,0.308186 -0.442664,0.22551 -0.602885,0.37247 -0.936972,0.447638 -0.334087,0.07517 -1.060976,0.442786 -1.620573,0.451136 -0.559593,0.0084 -1.444675,0.125175 -2.338358,0.576191 -0.893683,0.45102 -0.609828,0.6852 -1.119312,0.894004 -0.509484,0.208801 -1.695408,0.517726 -2.321822,0.576191 -0.626412,0.05846 -1.01886,0.84329 -1.24437,0.901755 -0.225504,0.05847 -0.484507,0.409218 -0.968933,0.517798 -0.484426,0.108577 -0.401132,0.451064 -0.543118,0.509529 -0.141989,0.05847 -1.753735,1.294889 -2.129586,1.821077 -0.375846,0.526185 -0.417545,0.47598 -0.417545,0.626319 0,0.150339 -0.216987,0.484568 -0.325562,0.551386 -0.108579,0.06682 -0.643326,0.601062 -0.802018,0.851628 -0.158692,0.250565 -0.893971,0.718452 -1.102775,0.960665 -0.208804,0.242213 -0.801793,0.876818 -0.927076,1.043863 -0.125283,0.167042 -0.526095,0.518105 -0.626319,0.693499 -0.100227,0.175395 -0.183767,0.39247 -0.409276,0.676445 -0.225507,0.283974 -0.417574,0.200583 -0.517798,0.501261 -0.100229,0.30068 0.03347,0.375475 -0.108521,0.55087 -0.141989,0.175398 -0.392253,0.451427 -0.492477,0.57671 -0.100227,0.12528 -0.451411,0.509037 -0.526582,0.609264 -0.07517,0.100224 -0.292179,0.459793 -0.425815,0.626835 -0.133636,0.167045 -0.367514,0.442381 -0.409276,0.542602 -0.04176,0.10023 -0.30053,0.450951 -0.425815,0.726572 -0.12528,0.275622 -0.284316,0.367726 -0.326078,0.543119 -0.04176,0.175394 0.05041,0.534691 -0.183452,0.910539 -0.233859,0.375849 -0.659907,1.11065 -0.659907,1.252636 0,0.141986 -0.04987,0.551161 -0.07493,0.676447 -0.02506,0.125282 -0.275617,0.985832 -0.309026,1.052647 -0.03341,0.06682 -0.08396,0.676198 -0.05891,1.0604 0.02506,0.384199 2.57e-4,0.718354 -0.02479,0.918808 -0.02506,0.200451 -0.0752,0.734949 -0.100251,0.826823 -0.02506,0.09187 -0.117136,0.434538 -0.133842,0.543118 -0.0167,0.108577 -0.166677,0.743426 -0.241845,0.968933 -0.07517,0.22551 -0.03344,1.553221 -0.100253,1.878957 -0.06682,0.325734 -0.610034,2.288366 -0.584978,2.480469 0.02506,0.192098 0.108757,1.002575 0.03359,1.203026 -0.0752,0.200454 -0.39274,0.684697 -0.39274,0.943613 0,0.258918 0.04214,1.954366 0.117306,2.4722 0.07517,0.517835 0.409083,1.687372 0.325561,1.87947 -0.08352,0.192101 -0.233658,0.90178 -0.225308,1.002007 0.0084,0.100226 0.08348,0.417848 0.208772,0.593246 0.125283,0.175395 0.141909,0.116758 0.367419,0.325562 0.225507,0.208803 0.367099,0.275473 0.45062,0.425812 0.08352,0.150339 0.259413,0.409279 0.259413,0.409279 l 0.100002,0.07545 c 0,0 0.422172,0.685308 0.457602,0.779798 0.03544,0.09449 0.253945,0.425373 0.248047,0.478523 -0.0059,0.05316 0.09405,1.057299 0.09405,1.429372 0,0.37207 0.395843,0.980302 0.395843,0.980302 0,0 0.391888,0.67496 0.425297,0.925523 0.03341,0.250566 0.267168,0.475941 0.267168,0.475941 0,0 0.325837,0.367641 0.401008,0.551386 0.07517,0.183751 0.208904,1.378238 0.200504,1.478465 -0.0084,0.100224 0.150418,0.918943 0.300757,1.111041 0.150339,0.192101 0.768265,1.302817 0.784966,1.50327 0.01669,0.200451 0.242149,0.826596 0.417544,0.951878 0.175397,0.125283 0.301627,0.34204 0.318328,0.45062 0.01669,0.108577 -0.167883,0.911146 0.08268,1.261938 0.250566,0.35079 0.358934,0.962607 0.84336,1.171411 0.484423,0.208807 0.436205,0.586306 0.436205,0.586306 0,0 1.327658,5.850086 1.847376,6.75959 0.519719,0.90951 1.088181,2.8123 1.35985,3.07216 0.271672,0.25986 0.523793,0.7158 0.748469,0.96219 0.253905,0.26393 0.850522,1.58187 1.047631,2.1732 0.185415,0.63811 0.342186,1.33505 0.275365,1.96146 -0.06682,0.62642 -0.131259,2.63867 -0.461989,3.31194 -0.330726,0.67327 -0.796038,2.14996 -1.989023,3.01222 -1.192988,0.86226 -2.507859,1.87069 -2.507859,1.87069 l -0.112654,0.0584 c -0.100227,0.0501 -0.985724,-2.2e-4 -1.628841,0.12506 -0.643118,0.12529 -0.977305,0.6935 -1.378212,1.05265 -0.400902,0.35914 -0.3341,0.49263 -1.695503,0.73484 -1.361406,0.24221 -1.724366,0.74111 -2.001943,1.16633 -0.277577,0.42523 -0.6261,0.82099 -0.838711,0.96273 -0.212614,0.14174 -1.116282,0.82122 -3.029789,1.82522 -1.913503,1.004 -4.252306,1.97248 -8.693525,3.95686 -4.44122,1.98437 -5.539787,1.83061 -9.685714,3.60236 -4.145926,1.77177 -3.932545,2.41097 -4.629438,2.83619 -0.696894,0.42522 -1.616889,1.53348 -2.089359,2.31306 -0.47247,0.77957 -1.475477,2.17963 -1.584055,2.32162 -0.108579,0.14198 -0.742937,0.79358 -0.914156,1.01492 -0.17122,0.22133 -0.41348,0.55138 -0.50953,0.65578 -0.09605,0.1044 -0.906418,1.26112 -0.956531,1.34462 -0.05011,0.0835 -0.471916,0.68492 -0.563789,0.81855 -0.09187,0.13364 -0.363215,0.66808 -0.42168,0.78083 -0.05847,0.11276 -0.733806,1.27383 -0.733806,1.27383 H 145.14909 c 0,0 -0.0731,-0.21727 -0.15658,-0.45114 -0.0835,-0.23386 -0.56947,-0.57671 -0.56947,-0.57671 0,0 -1.37497,-1.34418 -3.08767,-4.00182 -1.7127,-2.65765 -1.56639,-1.80697 -2.81844,-3.18895 -1.25205,-1.38197 -4.32325,-2.88443 -5.89421,-3.60495 -1.57096,-0.72052 -5.27756,-2.697 -5.66735,-2.86236 -0.38978,-0.16537 -1.25398,-0.97459 -2.22254,-1.41163 -0.96856,-0.43703 -1.84307,-1.21863 -3.20142,-1.86827 -1.35835,-0.64965 -0.74968,-0.59324 -1.63556,-1.25471 -0.88588,-0.66145 -1.29966,-0.7201 -1.63039,-0.75551 -0.33073,-0.0354 -0.34239,-0.31928 -1.0511,-0.47283 -0.7087,-0.15355 -0.65917,-0.20671 -1.36787,-1.03353 -0.70871,-0.82683 -1.79192,-1.37076 -2.27325,-1.70739 -0.48133,-0.33664 -0.93059,-0.55958 -1.30857,-0.56858 -0.37797,-0.009 -0.18427,0.14705 -0.9166,-1.01641 -0.73232,-1.16348 -1.20319,-1.05196 -1.39218,-1.12286 -0.18899,-0.0709 -0.5728,-0.14727 -1.22835,-0.31264 -0.65555,-0.1654 -0.9741,-0.0827 -0.9741,-0.0827 0,0 -0.74296,-0.98518 -1.05006,-1.26866 -0.30711,-0.28348 -1.66118,-1.99153 -1.70843,-2.22777 -0.0472,-0.23624 -0.61739,-3.25997 -0.59376,-4.37027 0.0236,-1.1103 -0.0347,-4.26602 -0.0583,-4.62037 -0.0236,-0.35435 0.41275,-1.30636 0.49543,-1.52369 0.0832,-0.21857 1.50343,-3.14016 1.90433,-3.908557 0.4009,-0.768401 1.41756,-6.549623 1.41756,-6.549623 0,0 1.27626,-0.194228 1.42981,-0.371401 0.15356,-0.177178 0.7912,-1.017894 0.89142,-1.493967 0.10023,-0.476076 0.26398,-1.450629 0.30574,-1.709547 0.0418,-0.258919 0.81763,-2.020742 0.81763,-2.313067 0,-0.292328 0.51706,-1.447535 0.54069,-1.677863 0.0236,-0.230331 0.54149,-1.037982 0.45881,-1.303745 -0.0827,-0.265764 -0.0616,-1.128244 0.13332,-1.482598 0.19489,-0.354351 0.26614,-0.501999 0.14211,-0.992188 -0.12402,-0.490185 0.47831,-1.842706 0.56689,-2.037601 0.0886,-0.194895 0.37569,-1.020093 0.37569,-1.020093 l -0.24184,-0.953431 c 0.0448,0.0828 0.0892,0.167073 0.0997,0.202057 0.0251,0.08352 0.0417,0.225345 0.0667,0.375687 0.0251,0.150339 0.0754,0.375687 0.0754,0.375687 0,0 0.45088,-0.951894 0.47593,-1.002006 0.0251,-0.05011 0.22566,-0.818478 0.24237,-0.876948 0.0167,-0.05846 0.0915,-0.693452 0.19172,-0.852147 0.10023,-0.158686 0.42607,-1.269534 0.45113,-1.336352 0.0251,-0.06682 0.0834,-0.584525 0.10852,-0.835091 0.0251,-0.250563 0.0254,-1.160873 0.008,-1.34462 -0.0167,-0.183748 3e-5,-1.303124 0.0501,-1.369941 0.0501,-0.06682 -2.2e-4,-0.559681 -0.0253,-0.659908 -0.0251,-0.10023 -0.22556,-0.876808 -0.2005,-0.993738 0.0251,-0.11693 -0.25053,-0.74326 -0.20877,-0.98547 0.0418,-0.242218 -0.34219,-0.768625 -0.33384,-0.852146 0.008,-0.08352 -0.067,-0.69337 0.0165,-0.860412 0.0835,-0.167045 -0.092,-0.509389 -0.0419,-0.626319 0.0501,-0.11693 -0.20888,-0.150204 -0.092,-0.475938 0.11693,-0.325736 -0.20843,-1.018913 -0.24184,-1.444873 -0.0334,-0.425961 -0.56793,-0.793444 -0.56793,-1.595253 0,-0.801809 -0.38449,-1.503275 -0.48472,-1.862418 -0.10022,-0.359142 -1.06044,-1.837695 -1.21078,-2.13837 -0.15034,-0.300678 -0.69318,-1.102339 -0.82682,-1.403017 -0.13363,-0.300678 -0.66844,-0.568155 -0.6935,-0.802018 -0.0251,-0.23386 -0.10856,-0.551394 0.0501,-0.910537 0.15869,-0.359143 -0.4178,-0.559279 -0.39274,-0.751377 0.0251,-0.192101 0.092,-0.333976 -0.008,-0.576191 -0.10022,-0.242213 -0.64296,-0.810215 -0.73484,-0.86868 -0.0919,-0.05846 -0.21708,-0.509834 -0.36742,-0.685231 -0.15034,-0.175395 -0.64341,-0.483936 -0.79375,-0.767911 -0.15031,-0.283972 -0.88536,-1.294715 -1.12758,-1.478463 -0.24221,-0.183747 -0.94349,-0.877075 -1.16065,-1.019061 -0.21716,-0.141986 -0.48473,-0.60978 -0.48473,-0.60978 0,0 -0.31732,0.02506 -0.41754,-0.05013 -0.10023,-0.07517 -0.68449,-0.450921 -0.80977,-0.626316 -0.12528,-0.175395 -0.28416,0.01659 -0.39274,-0.09199 -0.10858,-0.108577 -0.70157,-0.609555 -0.92708,-0.734838 -0.2255,-0.125283 -1.02737,-0.651666 -1.1777,-0.751893 -0.15034,-0.100227 -0.05,-0.01648 -0.42582,-0.225309 -0.37584,-0.208803 -0.6685,-0.576357 -1.25315,-0.868682 -0.58465,-0.292341 -0.985533,-0.409221 -1.236099,-0.517798 -0.250563,-0.108579 -0.684863,-0.242051 -0.927076,-0.375687 -0.242213,-0.133636 -0.283612,-0.208838 -0.600996,-0.459404 -0.317381,-0.250566 -0.55168,-0.284094 -0.676963,-0.451136 -0.12528,-0.167044 -0.208729,-0.267459 -0.367418,-0.392739 -0.158692,-0.125283 -0.425591,-0.317474 -0.550871,-0.350883 -0.125283,-0.03341 0.116684,0.03339 -0.284221,-0.05013 -0.400904,-0.08352 -0.843359,-0.10025 -0.843359,-0.10025 0,0 -0.175488,-0.04145 -0.350882,-0.133326 -0.175395,-0.09187 -0.517753,-0.158758 -0.676445,-0.25063 -0.158692,-0.09187 -0.417933,-0.125349 -0.584978,-0.250631 -0.167042,-0.125283 -0.250613,-0.217263 -0.509529,-0.401008 -0.258919,-0.183751 -0.350562,-0.116774 -0.434083,-0.06667 -0.08352,0.05011 -0.05836,0.09195 -0.267166,-0.05839 -0.208804,-0.150339 -0.392742,-0.142111 -0.392742,-0.142111 0,0 -0.617895,-0.167179 -0.684713,-0.192235 -0.06682,-0.02506 -0.175654,-0.03301 -0.334346,-0.09147 -0.158692,-0.05847 -0.300807,0.01625 -0.501261,-0.109035 -0.200451,-0.12528 -0.347863,-0.07337 -0.364567,0.0268 -0.01669,0.100224 -0.0278,-0.05998 -0.27002,-0.10174 -0.242213,-0.04176 -0.344638,-0.04605 -0.544669,-0.0078 -0.233106,0.07551 -0.03295,0.117483 -0.559141,0.150892 -0.526187,0.03341 -0.904528,-0.0044 -1.034613,-0.03368 -0.166624,-0.04239 -0.08648,-0.05071 -0.378807,-0.201051 -0.255783,-0.131546 -0.570825,-0.03267 -0.840999,-0.03792 z"
       id="path10824"
       inkscape:connector-curvature="0"
       sodipodi:nodetypes="ccscccccccccscsscccccccccccssccccccccccsscccccccccsccccccccccccsccccccccccsccccsscccccccccccccccccccccccccccscccsccccssccccsccccccccccccccccccccsccccccccccssccccsccccscccccccscccccscccccccccc" />
    <path
       style="display:inline;opacity:0.95;fill:#9b0000;fill-opacity:1;stroke:none;stroke-width:0.05;stroke-linecap:butt;stroke-linejoin:miter;stroke-miterlimit:4;stroke-dasharray:none;stroke-opacity:1"
       d="m 86.225556,40.901618 c -0.144505,0.0076 -0.291243,0.03105 -0.426331,0.02842 -0.0386,-7.94e-4 -0.0837,0.0021 -0.136941,0.0083 -0.425963,0.05011 -1.973728,0.083 -2.416392,0.308507 -0.442663,0.225509 -0.602805,0.37235 -0.936892,0.447518 -0.334087,0.07517 -1.060976,0.442786 -1.620573,0.451136 -0.559593,0.0084 -1.444675,0.125175 -2.338358,0.576191 -0.893683,0.45102 -0.609828,0.6852 -1.119312,0.894004 -0.509484,0.208801 -1.695408,0.517726 -2.321822,0.576191 -0.626412,0.05846 -1.01886,0.84329 -1.24437,0.901755 -0.225504,0.05847 -0.484507,0.409218 -0.968933,0.517798 -0.484426,0.108577 -0.401132,0.451064 -0.543118,0.509529 -0.141989,0.05847 -1.753735,1.294889 -2.129586,1.821077 -0.375846,0.526185 -0.417547,0.47598 -0.417545,0.626319 0,0.150339 -0.216987,0.484568 -0.325562,0.551386 -0.108579,0.06682 -0.643326,0.601062 -0.802018,0.851628 -0.158692,0.250565 -0.893971,0.718452 -1.102775,0.960665 -0.208804,0.242213 -0.801793,0.876818 -0.927076,1.043863 -0.125283,0.167042 -0.526095,0.518105 -0.626319,0.693499 -0.100227,0.175395 -0.183767,0.39247 -0.409276,0.676445 -0.225507,0.283974 -0.417574,0.200583 -0.517798,0.501261 -0.100229,0.30068 0.03347,0.375475 -0.108521,0.55087 -0.141989,0.175398 -0.392253,0.451427 -0.492477,0.57671 -0.100227,0.12528 -0.451411,0.509037 -0.526582,0.609264 -0.07517,0.100224 -0.292179,0.459793 -0.425815,0.626835 -0.133636,0.167045 -0.367514,0.442383 -0.409276,0.542602 -0.04176,0.10023 -0.30053,0.450951 -0.425815,0.726572 -0.12528,0.275622 -0.284316,0.367726 -0.326078,0.543119 -0.04176,0.175394 0.05041,0.534691 -0.183452,0.910539 -0.233859,0.375849 -0.659907,1.11065 -0.659907,1.252636 0,0.141986 -0.04987,0.551161 -0.07493,0.676447 -0.02506,0.12528 -0.275617,0.985832 -0.309026,1.052647 -0.03341,0.06682 -0.08396,0.676198 -0.05891,1.0604 0.02506,0.384199 2.43e-4,0.718354 -0.02479,0.918808 -0.02506,0.200451 -0.0752,0.734949 -0.100251,0.826823 -0.02506,0.09187 -0.117136,0.434538 -0.133842,0.543118 -0.0167,0.108577 -0.166677,0.743426 -0.241845,0.968933 -0.07517,0.22551 -0.03344,1.553221 -0.100253,1.878957 -0.06682,0.325734 -0.610034,2.288366 -0.584978,2.480469 0.02506,0.192098 0.108757,1.002575 0.03359,1.203026 -0.0752,0.200454 -0.39274,0.684697 -0.39274,0.943613 0,0.258918 0.04214,1.954366 0.117306,2.4722 0.07517,0.517835 0.409083,1.687372 0.325561,1.87947 -0.08352,0.192101 -0.233658,0.90178 -0.225308,1.002007 0.0084,0.100226 0.08348,0.417848 0.208772,0.593246 0.125283,0.175395 0.141909,0.116758 0.367419,0.325562 0.225507,0.208803 0.367099,0.275473 0.45062,0.425812 0.08351,0.150339 0.259413,0.409279 0.259413,0.409279 h 5.29e-4 l 0.09974,0.07545 c 0,0 -0.05011,-0.852088 0,-0.960665 0.05011,-0.10858 0.100698,-0.275445 0.159163,-0.32556 0.05846,-0.05011 0.07513,-0.175725 0.158647,-0.275952 0.08352,-0.100224 0.09167,-0.133604 0.225308,-0.208775 0.133636,-0.07517 0.392586,-0.275434 0.459404,-0.275434 0.06682,0 0.500941,-0.125126 0.584462,-0.06666 0.08352,0.05847 0.200377,0.192066 0.367419,0.208772 0.167045,0.01669 0.484666,-0.01696 0.593246,0.02479 0.108577,0.04176 0.517991,0.06678 0.601512,0.158647 0.08352,0.09187 0.133339,0.150347 0.183451,0.359151 0.07825,0.534633 -0.08029,0.362201 0.09199,1.161169 0.09856,0.340608 0.215797,0.527317 0.325562,0.776697 0.10858,0.250566 0.155237,0.642133 0.175699,0.425813 0,0 0.139896,-1.538923 0.198954,-1.621605 0.05906,-0.08268 0.05877,-1.16368 0.117824,-1.234551 0.110945,-0.583264 0.265115,-1.194218 0.09974,-1.577163 -0.07087,-0.03543 -0.230254,0.0296 -0.194818,-0.02946 0.03544,-0.05906 0.12097,-1.531371 0.549198,-2.700004 0.4406,-1.202399 0.757245,-2.233173 1.007811,-2.784417 0.250563,-0.551243 0.718651,-1.520412 0.735354,-1.871205 0.0167,-0.35079 0.401024,-1.620147 0.451136,-1.970937 0.05011,-0.350792 0.23345,-1.052237 0.400492,-1.453141 0.167044,-0.400905 0.601554,-1.202603 0.751893,-1.553396 0.150338,-0.35079 0.06673,-0.835194 0.317293,-1.236099 0.250566,-0.400904 0.53485,-0.852143 0.53485,-0.852143 0,0 0.617736,2.906495 1.060402,3.399274 0,0 -0.688908,-2.89813 -0.07286,-4.025593 0.09449,0 0.590587,0.176879 0.661458,0.200504 0.07087,0.02363 0.212537,0.401894 0.566888,0.212907 0.354354,-0.188989 0.519793,-0.283408 0.673347,-0.484208 0.15355,-0.200801 0.200649,-0.507979 0.47232,-0.673344 0.271672,-0.165364 0.295072,-0.342762 0.625804,-0.283705 0.330729,0.05906 0.649941,-0.177101 0.791681,-0.318841 0.141742,-0.141743 0.696526,0.08283 0.767394,0.189135 0.07087,0.106304 0.03566,1.004072 0.03566,1.004072 0,0 0.177102,-0.212759 0.318844,-0.767911 0.14174,-0.555154 0.130003,-1.004294 0.259932,-1.205095 0.129929,-0.2008 0.566891,-0.117821 0.566891,-0.117821 0,0 0.626243,-0.366461 0.697114,-0.29559 0.07087,0.07087 0.177252,0.720886 0.177252,0.720886 l 0.353984,-0.153479 c 0,0 0.13022,-0.07095 0.04754,0.566891 -0.08268,0.637834 -0.04134,0.749824 -0.04134,0.749824 0,0 0.281556,-0.515263 0.528534,-0.784844 0.222131,-0.235961 0.390157,-0.283187 0.390157,-0.283187 l 0.0673,0.542484 1.542023,-2.70268 c 0,0 -0.467878,2.388696 -0.601514,2.522329 -0.133633,0.133636 0.684559,-0.784992 0.751377,-0.885219 0.06682,-0.100224 0.05045,0.267623 -0.03307,0.685231 -0.08352,0.417608 1.386377,-1.770991 1.653646,-1.92133 0.267269,-0.150339 0.467842,0.284078 0.451136,0.401008 -0.01669,0.11693 -0.09937,1.08562 -0.167434,1.352888 -0.06222,0.243885 1.720673,-0.584343 2.455664,-0.801499 0.734994,-0.217157 2.939939,-0.116946 3.190505,-0.05013 0.250566,0.06682 0.86868,0.300757 0.86868,0.300757 0,0 -0.400881,0.652391 -0.567923,0.701249 -0.167047,0.0167 0.561583,0.03534 0.979191,-0.565917 0.465458,-0.680871 0.213781,-0.0083 0.213781,-0.0083 0,0 -0.08209,0.273714 -0.374417,0.657915 -0.292325,0.384199 0.743516,-0.200715 1.319815,-1.002522 0.5763,-0.801809 1.566829,-0.344165 1.566829,-0.344165 0,0 -0.326078,0.798103 -0.574125,1.16427 -0.248047,0.366165 1.684348,-1.194681 1.684348,-1.194681 0,0 1.03804,-0.794755 1.250651,-0.723884 0.212614,0.07087 0.25432,1.339937 0.148016,1.859653 -0.106307,0.519719 -0.142036,1.807049 -0.212905,1.960605 -0.07087,0.153551 1.13415,-1.358204 1.937348,-1.712558 0.803201,-0.354351 2.187921,-0.831839 2.36833,-1.042313 0.168712,-0.184166 0.668086,1.519793 0.317294,2.137852 -0.35079,0.618064 -0.434634,1.185992 -0.584975,1.904278 -0.150342,0.718288 0.40123,-0.76848 1.253151,-0.968934 0.851923,-0.200451 0.221009,1.814844 0.04444,2.5492 -0.09098,0.479068 -0.02156,1.067028 -0.02791,1.092438 0,0 1.038383,-1.654519 1.337383,-2.174026 0.28732,-0.461039 1.31879,-0.431498 1.31879,-0.431498 0,0 0.82424,0.949002 1.32033,1.728576 0.49609,0.779576 1.20458,2.456622 1.20458,3.188951 0,0.732327 0.59066,4.110787 1.08675,4.512387 0.4961,0.401598 1.37031,0.944795 1.84278,1.79524 0.47248,0.850448 1.20465,3.141631 1.29915,3.425114 0.0945,0.283482 0.36208,1.302059 0.37879,1.577681 0.0167,0.275622 0.45138,-1.211038 0.73535,-1.545124 0.28397,-0.334087 0.34228,-0.576218 0.68471,-0.676445 0.34245,-0.100227 0.5598,-0.100433 0.7519,-0.133842 0.1921,-0.03341 0.40934,-0.0417 0.65991,-0.0584 0.25056,-0.01669 0.32558,0.07521 0.42581,0.150379 0.10023,0.07517 0.26703,0.108812 0.38396,0.234095 0.11693,0.125283 0.2509,0.308967 0.32607,0.417544 0.0437,0.06311 0.1135,0.184309 0.1757,0.299207 0.0448,0.0828 0.0892,0.167074 0.0997,0.202057 0.0251,0.08352 0.0416,0.225348 0.0667,0.375687 0.0251,0.150339 0.0755,0.375687 0.0755,0.375687 0,0 0.45088,-0.951894 0.47594,-1.002006 0.0251,-0.05011 0.22565,-0.818478 0.24237,-0.876948 0.0167,-0.05846 0.0915,-0.693452 0.19171,-0.852146 0.10023,-0.158687 0.42608,-1.269535 0.45114,-1.336353 0.0251,-0.06682 0.0834,-0.584525 0.10852,-0.835091 0.0251,-0.250563 0.0254,-1.160872 0.008,-1.34462 -0.0167,-0.183748 3e-5,-1.303123 0.0501,-1.369941 0.0501,-0.06682 -2.3e-4,-0.559681 -0.0253,-0.659908 -0.0251,-0.10023 -0.22556,-0.876808 -0.2005,-0.993738 0.0251,-0.11693 -0.25054,-0.74326 -0.20878,-0.98547 0.0418,-0.242218 -0.34218,-0.768625 -0.33383,-0.852146 0.008,-0.08352 -0.067,-0.69337 0.0165,-0.860412 0.0835,-0.167044 -0.092,-0.509389 -0.0419,-0.626319 0.0501,-0.11693 -0.20888,-0.150206 -0.092,-0.475938 0.11693,-0.325736 -0.20843,-1.018913 -0.24184,-1.444873 -0.0334,-0.425961 -0.56793,-0.793443 -0.56793,-1.595253 0,-0.801809 -0.38449,-1.503275 -0.48472,-1.862418 -0.10022,-0.359142 -1.06044,-1.837695 -1.21078,-2.13837 -0.15034,-0.300678 -0.69318,-1.102339 -0.82682,-1.403017 -0.13363,-0.300677 -0.66844,-0.568155 -0.6935,-0.802018 -0.0251,-0.23386 -0.10856,-0.551394 0.0501,-0.910537 0.15869,-0.359143 -0.4178,-0.559279 -0.39274,-0.751377 0.0251,-0.192101 0.092,-0.333975 -0.008,-0.576191 -0.10022,-0.242213 -0.64297,-0.810218 -0.73484,-0.86868 -0.0919,-0.05846 -0.21708,-0.509833 -0.36742,-0.685231 -0.15034,-0.175395 -0.64341,-0.483936 -0.79375,-0.767911 -0.15031,-0.283972 -0.88537,-1.294715 -1.12758,-1.478462 -0.24221,-0.183748 -0.9435,-0.877076 -1.16065,-1.019062 -0.21716,-0.141986 -0.48473,-0.60978 -0.48473,-0.60978 0,0 -0.31732,0.02506 -0.41754,-0.05013 -0.10023,-0.07517 -0.68449,-0.450921 -0.80977,-0.626316 -0.12528,-0.175395 -0.28416,0.01659 -0.39274,-0.09199 -0.10858,-0.108577 -0.70157,-0.609555 -0.92708,-0.734838 -0.2255,-0.125283 -1.02737,-0.651666 -1.17771,-0.751893 -0.15033,-0.100227 -0.05,-0.01648 -0.42581,-0.225308 -0.37585,-0.208804 -0.6685,-0.576358 -1.25315,-0.868683 -0.584652,-0.292341 -0.985535,-0.40922 -1.236101,-0.517797 -0.250563,-0.10858 -0.684863,-0.242052 -0.927076,-0.375688 -0.242213,-0.133635 -0.283612,-0.208838 -0.600996,-0.459404 -0.317381,-0.250565 -0.55168,-0.284093 -0.676963,-0.451135 -0.12528,-0.167045 -0.20873,-0.26746 -0.367419,-0.39274 -0.158691,-0.125283 -0.42559,-0.317473 -0.55087,-0.350882 -0.125283,-0.03341 0.116684,0.03339 -0.284221,-0.05013 -0.400904,-0.08352 -0.843359,-0.100251 -0.843359,-0.100251 0,0 -0.175488,-0.04145 -0.350883,-0.133326 -0.175395,-0.09187 -0.517752,-0.158758 -0.676444,-0.250629 -0.158692,-0.09187 -0.417933,-0.125349 -0.584978,-0.250632 -0.167042,-0.125283 -0.250613,-0.217263 -0.509529,-0.401008 -0.258919,-0.183751 -0.350562,-0.116774 -0.434084,-0.06666 -0.08352,0.05011 -0.05836,0.09194 -0.267165,-0.05839 -0.208804,-0.150339 -0.392742,-0.14211 -0.392742,-0.14211 0,0 -0.617895,-0.16718 -0.684713,-0.192236 -0.06682,-0.02506 -0.175654,-0.03301 -0.334346,-0.09147 -0.158692,-0.05847 -0.300807,0.01624 -0.501261,-0.109035 -0.200451,-0.12528 -0.347615,-0.07329 -0.364318,0.02687 -0.01669,0.100224 -0.02805,-0.06004 -0.270269,-0.101804 -0.242213,-0.04176 -0.344639,-0.04605 -0.544669,-0.0078 -0.233106,0.0755 -0.03295,0.117486 -0.559139,0.150895 -0.526187,0.03341 -0.904478,-0.0043 -1.034563,-0.03359 -0.166624,-0.04239 -0.08646,-0.05068 -0.378788,-0.20102 -0.127891,-0.06577 -0.270457,-0.07428 -0.414962,-0.06666 z"
       id="path3203"
       inkscape:connector-curvature="0"
       sodipodi:nodetypes="cccscccccccccccsscccccccccccssccccccccccssccccccccccccsccccccccccccsccccccccccccscscccscsccsccccccccsccsccccccccccccccccsccccccsccccscccccccccccccccccccccccccsccccccccccssccccsscccscccccccscccccscccccscccc" />
    <path
       style="display:inline;opacity:0.95;fill:#ff0000;fill-opacity:1;stroke:none;stroke-width:0.1;stroke-linecap:butt;stroke-linejoin:miter;stroke-miterlimit:4;stroke-dasharray:none;stroke-opacity:1"
       d="m 66.832942,117.2401 c -0.100227,0.0501 -0.985724,-2.2e-4 -1.628842,0.12506 -0.643117,0.12529 -0.977304,0.6935 -1.378212,1.05265 -0.400899,0.35914 -0.334099,0.49263 -1.695502,0.73484 -1.361406,0.24221 -1.724367,0.74112 -2.001944,1.16634 -0.277577,0.42523 -0.626099,0.82099 -0.83871,0.96273 -0.212614,0.14174 -1.116283,0.82121 -3.029789,1.82521 -1.913504,1.004 -4.252307,1.97248 -8.693526,3.95686 -4.441219,1.98437 -5.539786,1.83061 -9.685713,3.60237 -4.145926,1.77176 -3.932282,2.41078 -4.629175,2.836 -0.696894,0.42522 -1.617325,1.53346 -2.089795,2.31304 -0.47247,0.77957 -1.475305,2.17983 -1.583883,2.32182 -0.108578,0.14198 -0.742936,0.79359 -0.914156,1.01493 -0.171219,0.22133 -0.413479,0.55137 -0.50953,0.65577 -0.09605,0.1044 -0.906417,1.26112 -0.95653,1.34462 -0.05011,0.0835 -0.471916,0.68493 -0.56379,0.81856 -0.09187,0.13363 -0.363215,0.66808 -0.42168,0.78083 -0.05846,0.11276 -0.733805,1.27382 -0.733805,1.27382 h 119.67073 c 0,0 -0.0731,-0.21727 -0.15658,-0.45114 -0.0835,-0.23386 -0.56947,-0.5767 -0.56947,-0.5767 0,0 -1.37497,-1.34419 -3.08767,-4.00183 -1.7127,-2.65765 -1.56639,-1.80697 -2.81844,-3.18895 -1.25205,-1.38197 -4.32325,-2.88443 -5.89421,-3.60495 -1.57096,-0.72052 -5.27756,-2.697 -5.66735,-2.86236 -0.38978,-0.16537 -1.25405,-0.97476 -2.22261,-1.4118 -0.96856,-0.43703 -1.843,-1.21846 -3.20135,-1.8681 -1.35835,-0.64965 -0.74968,-0.59324 -1.63556,-1.2547 -0.88588,-0.66145 -1.29966,-0.72011 -1.63039,-0.75551 -0.33073,-0.0354 -0.34239,-0.31929 -1.0511,-0.47284 -0.7087,-0.15355 -0.65917,-0.20671 -1.36787,-1.03353 -0.70871,-0.82683 -1.79192,-1.37076 -2.27325,-1.70739 -0.48133,-0.33664 -0.93047,-0.55944 -1.30845,-0.56844 -0.37797,-0.009 -0.18441,0.14698 -0.91674,-1.01648 -0.73232,-1.16348 -1.20317,-1.05202 -1.39216,-1.12292 -0.18899,-0.0709 -0.5728,-0.14728 -1.22835,-0.31265 -0.65555,-0.1654 -0.9741,-0.0827 -0.9741,-0.0827 0,0 0.8503,0.43681 1.09244,0.66715 0.24214,0.23032 0.9744,0.7794 1.14567,0.8325 0.17127,0.0531 0.0946,0.21291 0.0946,0.21291 0,0 -0.56538,1.61188 -3.3383,3.9672 -2.77292,2.35531 -5.56784,3.75747 -8.083745,4.76146 -2.515904,1.00401 -6.271823,2.24447 -10.547675,2.10272 -4.275857,-0.14174 -8.696852,-1.51883 -9.548773,-1.7694 -0.851921,-0.25056 -5.679604,-2.65597 -6.414595,-3.19051 -0.734992,-0.53453 -4.050784,-3.34125 -4.526854,-3.76721 -0.476078,-0.42596 -1.620118,-1.82913 -2.179715,-2.6727 -0.578175,-0.91106 0.162423,-1.08647 1.202513,-1.42782 z"
       id="path3221"
       inkscape:connector-curvature="0" />
  </g>
</svg>
